<svg width="60" height="28" viewBox="0 0 60 28" fill="none" xmlns="http://www.w3.org/2000/svg">
<path d="M29.1459 23.9636C29.2944 23.7309 29.2262 23.4217 28.9935 23.2731L25.2005 20.8517C24.9677 20.7031 24.6586 20.7713 24.51 21.0041C24.3614 21.2368 24.4296 21.546 24.6624 21.6946L28.0339 23.847L25.8815 27.2185C25.7329 27.4512 25.8012 27.7604 26.0339 27.909C26.2667 28.0576 26.5758 27.9893 26.7244 27.7566L29.1459 23.9636ZM58.5062 5.40761C58.7713 6.39698 58.5178 7.54207 57.7005 8.82042C56.8832 10.0986 55.5322 11.4588 53.712 12.833C50.0746 15.5791 44.6537 18.3141 38.1927 20.5247L38.5164 21.4709C45.0414 19.2384 50.5667 16.4605 54.3145 13.6311C56.1869 12.2174 57.6382 10.7741 58.543 9.3591C59.4476 7.94422 59.8359 6.5063 59.4721 5.1488L58.5062 5.40761ZM27.5411 3.82374C35.5055 1.6897 42.9855 0.844613 48.6329 1.19111C51.4593 1.36452 53.7977 1.83478 55.5017 2.57093C57.2121 3.3098 58.2036 4.27853 58.5062 5.40761L59.4721 5.1488C59.0568 3.59874 57.7427 2.4497 55.8983 1.65293C54.0476 0.853429 51.5821 0.370175 48.6942 0.192983C42.9127 -0.161735 35.322 0.703599 27.2823 2.85781L27.5411 3.82374ZM1.51657 20.6779C1.21403 19.5489 1.58836 18.2141 2.70014 16.7191C3.80782 15.2295 5.59779 13.6531 7.95882 12.0897C12.6763 8.96594 19.5768 5.95778 27.5411 3.82374L27.2823 2.85781C19.2427 5.01203 12.2362 8.05801 7.40672 11.2559C4.99425 12.8534 3.1007 14.5046 1.8977 16.1223C0.698804 17.7346 0.135305 19.3867 0.550641 20.9368L1.51657 20.6779ZM28.6167 23.2063C21.4778 24.7819 14.9402 25.2815 10.0437 24.7858C7.5932 24.5377 5.58215 24.043 4.11786 23.3297C2.65166 22.6155 1.79437 21.7147 1.51657 20.6779L0.550641 20.9368C0.931945 22.3598 2.07222 23.4456 3.67994 24.2287C5.28957 25.0128 7.42882 25.5261 9.94293 25.7807C14.9755 26.2902 21.6242 25.7736 28.8322 24.1828L28.6167 23.2063Z" fill="#C5EC1C"/>
</svg>
